<svg xmlns="http://www.w3.org/2000/svg" version="1.1" xmlns:xlink="http://www.w3.org/1999/xlink" xmlns:svgjs="http://svgjs.dev/svgjs" width="2000" height="1247" viewBox="0 0 2000 1247"><g transform="matrix(1,0,0,1,-1.2121212121212466,236.21689314194577)"><svg viewBox="0 0 396 247" data-background-color="#1c2e4a" preserveAspectRatio="xMidYMid meet" height="1247" width="2000" xmlns="http://www.w3.org/2000/svg" xmlns:xlink="http://www.w3.org/1999/xlink"><defs></defs><g id="tight-bounds" transform="matrix(1,0,0,1,0.2400000000000091,-0.09999999999999432)"><svg viewBox="0 0 395.52 247.2" height="247.2" width="395.52"><g><svg></svg></g><g><svg viewBox="0 0 395.52 247.2" height="247.2" width="395.52"><g transform="matrix(1,0,0,1,75.54432,49.91919108907675)"><svg viewBox="0 0 244.43135999999998 147.3616178218465" height="147.3616178218465" width="244.43135999999998"><g><svg viewBox="0 0 244.43135999999998 147.3616178218465" height="147.3616178218465" width="244.43135999999998"><g transform="matrix(1,0,0,1,0,76.31237657475556)"><svg viewBox="0 0 244.43135999999998 71.04924124709093" height="71.04924124709093" width="244.43135999999998"><g><svg viewBox="0 0 244.43135999999998 71.04924124709093" height="71.04924124709093" width="244.43135999999998"><g><svg viewBox="0 0 244.43135999999998 71.04924124709093" height="71.04924124709093" width="244.43135999999998"><g transform="matrix(1,0,0,1,0,0)"><svg width="244.43135999999998" viewBox="-2.4456777572631836 -10.361413955688477 183.2288818359375 53.25938415527344" height="71.04924124709093" data-palette-color="#fbfbfb"><path d="M38.172 27.665l-6.306-0.376c-0.188-0.008-0.437-0.008-0.749-0.002-0.318 0.004-0.61-0.039-0.875-0.13v0c-0.221-0.075-0.394-0.198-0.52-0.367-0.127-0.163-0.146-0.377-0.055-0.642v0l0.048-0.142c0.503-1.103 0.913-1.995 1.23-2.677 0.325-0.685 0.584-1.238 0.777-1.658 0.193-0.42 0.344-0.739 0.453-0.955 0.109-0.216 0.213-0.417 0.311-0.601 0.098-0.185 0.2-0.39 0.304-0.615 0.105-0.225 0.253-0.544 0.443-0.958 0.191-0.414 0.445-0.965 0.765-1.652 0.31-0.683 0.717-1.587 1.22-2.711v0c0.276-0.603 0.553-1.199 0.832-1.787 0.28-0.595 0.509-1.151 0.685-1.668v0c0.224-0.656 0.393-1.264 0.506-1.825 0.114-0.56 0.144-1.064 0.093-1.511-0.045-0.445-0.186-0.828-0.422-1.147-0.24-0.328-0.603-0.576-1.089-0.742v0c-0.297-0.101-0.703-0.169-1.219-0.204-0.523-0.037-1.077 0.02-1.665 0.172-0.596 0.156-1.178 0.429-1.748 0.819-0.57 0.39-1.044 0.965-1.423 1.723v0l-0.032 0.095c-0.796 1.715-1.49 3.2-2.08 4.457-0.595 1.248-1.106 2.324-1.534 3.227-0.426 0.897-0.783 1.645-1.072 2.244-0.282 0.601-0.519 1.108-0.71 1.523-0.197 0.412-0.353 0.756-0.469 1.034-0.12 0.269-0.223 0.53-0.309 0.782v0c-0.043 0.126-0.075 0.231-0.097 0.315-0.024 0.09-0.046 0.167-0.068 0.231v0c-0.043 0.126-0.135 0.211-0.277 0.254-0.15 0.047-0.448 0.065-0.895 0.054v0l-6.051-0.289c-0.188-0.008-0.437-0.008-0.749-0.002-0.318 0.004-0.61-0.039-0.875-0.13v0c-0.221-0.075-0.394-0.198-0.52-0.367-0.127-0.163-0.146-0.377-0.055-0.642v0l0.048-0.142c0.503-1.103 0.91-1.996 1.221-2.68 0.313-0.689 0.572-1.242 0.776-1.658 0.199-0.418 0.353-0.735 0.462-0.951 0.109-0.216 0.21-0.418 0.302-0.606 0.092-0.187 0.194-0.392 0.305-0.614 0.111-0.223 0.259-0.542 0.443-0.958 0.184-0.416 0.433-0.969 0.745-1.658 0.31-0.683 0.721-1.586 1.23-2.708v0c0.27-0.605 0.547-1.201 0.832-1.788 0.28-0.595 0.509-1.151 0.685-1.668v0c0.224-0.656 0.396-1.263 0.515-1.821 0.12-0.558 0.163-1.057 0.131-1.498-0.033-0.441-0.155-0.817-0.365-1.128-0.202-0.316-0.521-0.548-0.957-0.696v0c-0.315-0.108-0.768-0.174-1.358-0.199-0.596-0.027-1.224 0.047-1.883 0.224-0.657 0.17-1.294 0.478-1.91 0.922-0.61 0.447-1.093 1.089-1.45 1.925v0c-0.52 1.112-0.948 2.026-1.284 2.743-0.328 0.712-0.595 1.301-0.803 1.765-0.212 0.456-0.377 0.826-0.494 1.11-0.124 0.282-0.238 0.542-0.341 0.782v0c-0.034 0.059-0.116 0.228-0.247 0.507-0.131 0.279-0.283 0.612-0.456 0.996-0.173 0.385-0.361 0.8-0.562 1.245-0.195 0.448-0.376 0.865-0.543 1.252-0.167 0.387-0.31 0.722-0.428 1.006-0.124 0.282-0.197 0.454-0.219 0.517v0l-0.142 0.416c-0.054 0.158-0.108 0.287-0.164 0.388-0.051 0.109-0.131 0.198-0.239 0.267-0.112 0.06-0.255 0.107-0.428 0.14-0.177 0.024-0.415 0.038-0.712 0.042v0l-6.875 0.085c-0.192 0.005-0.446 0.006-0.762 0.004-0.316-0.002-0.607-0.049-0.872-0.139v0c-0.215-0.073-0.384-0.195-0.51-0.364-0.127-0.163-0.146-0.377-0.055-0.642v0l10.249-23.172c0.227-0.5 0.409-0.836 0.545-1.008 0.136-0.172 0.357-0.241 0.663-0.207v0c1.514 0.207 3.062 0.418 4.644 0.633 1.582 0.216 3.159 0.341 4.731 0.378v0c0.126 0.043 0.195 0.088 0.208 0.134 0.006 0.044-0.004 0.104-0.03 0.18v0l-1.471 3.323c0.682-0.099 1.442-0.202 2.282-0.31 0.84-0.108 1.702-0.177 2.585-0.206 0.89-0.028 1.778 0.001 2.665 0.085 0.887 0.084 1.722 0.26 2.504 0.526v0c1.079 0.368 1.992 0.954 2.739 1.759 0.741 0.802 1.213 1.875 1.417 3.219v0c0.862-0.213 1.754-0.381 2.675-0.503 0.922-0.122 1.841-0.182 2.756-0.18 0.911-0.006 1.808 0.057 2.693 0.19 0.88 0.124 1.709 0.319 2.485 0.583v0c0.984 0.336 1.868 0.792 2.65 1.369 0.78 0.583 1.383 1.303 1.809 2.16 0.43 0.865 0.657 1.872 0.681 3.022 0.03 1.151-0.206 2.462-0.707 3.932v0c-0.127 0.372-0.268 0.754-0.423 1.145-0.148 0.393-0.32 0.793-0.514 1.198v0l-4.498 9.655c-0.3 0.63-0.55 1.221-0.752 1.772-0.208 0.549-0.437 1.189-0.687 1.921v0c-0.043 0.126-0.075 0.231-0.097 0.316-0.018 0.093-0.037 0.171-0.059 0.233v0c-0.047 0.139-0.145 0.229-0.293 0.27-0.139 0.037-0.436 0.049-0.889 0.035zM62.017 31.389l-7.181 11.322c-0.043 0.061-0.087 0.108-0.133 0.143-0.046 0.04-0.119 0.053-0.218 0.038v0c-0.099-0.015-0.17-0.035-0.213-0.062v0c-0.556-0.298-1.087-0.558-1.593-0.781-0.499-0.229-0.996-0.44-1.493-0.635-0.496-0.201-1.003-0.394-1.522-0.578-0.525-0.185-1.081-0.389-1.668-0.611v0c-0.153-0.056-0.271-0.128-0.353-0.214-0.082-0.086-0.109-0.218-0.083-0.396v0c0.007-0.046 0.054-0.16 0.142-0.343 0.087-0.176 0.285-0.537 0.595-1.085 0.317-0.546 0.794-1.335 1.431-2.366 0.638-1.031 1.509-2.415 2.615-4.152v0c-0.123-0.854-0.256-1.874-0.397-3.061-0.141-1.187-0.29-2.486-0.446-3.897-0.15-1.404-0.301-2.888-0.454-4.454-0.153-1.566-0.306-3.149-0.461-4.749-0.155-1.6-0.312-3.183-0.471-4.75-0.16-1.56-0.321-3.053-0.48-4.478v0c-0.073-0.28-0.104-0.507-0.092-0.681 0.006-0.174 0.017-0.318 0.033-0.429v0c0.034-0.231 0.188-0.36 0.462-0.387v0c1.314-0.089 2.679-0.184 4.095-0.285 1.409-0.095 2.762-0.289 4.059-0.583v0c0.049-0.013 0.123-0.012 0.222 0.003v0c0.211 0.031 0.314 0.131 0.31 0.298v0l0.557 16.893c0.095-0.188 0.273-0.526 0.534-1.013 0.267-0.486 0.579-1.067 0.935-1.742 0.357-0.682 0.754-1.432 1.191-2.25 0.439-0.825 0.889-1.661 1.351-2.51 0.456-0.849 0.911-1.695 1.366-2.537 0.448-0.844 0.867-1.627 1.257-2.352 0.39-0.724 0.731-1.365 1.022-1.921 0.291-0.557 0.515-0.975 0.67-1.256v0c0.09-0.155 0.224-0.22 0.403-0.193v0c0.053 0.008 0.085 0.019 0.096 0.035 0.019 0.01 0.051 0.018 0.098 0.024v0c1.157 0.656 2.356 1.227 3.598 1.714 1.248 0.494 2.488 0.974 3.719 1.439v0c0.3 0.112 0.428 0.316 0.385 0.613v0c-0.031 0.211-0.178 0.523-0.442 0.936v0zM87.048 16.181l-0.906 9.592c0.164 0.335 0.397 0.674 0.701 1.017 0.304 0.336 0.654 0.646 1.051 0.929 0.404 0.284 0.845 0.514 1.324 0.692 0.472 0.178 0.964 0.269 1.478 0.273v0c0.707 0.006 1.376-0.264 2.007-0.811 0.632-0.541 1.188-1.276 1.67-2.205 0.482-0.929 0.858-1.989 1.129-3.18 0.277-1.198 0.422-2.44 0.433-3.727v0c0.007-0.793-0.056-1.544-0.189-2.251-0.134-0.708-0.348-1.33-0.644-1.866-0.289-0.529-0.668-0.953-1.138-1.271-0.464-0.318-1.026-0.479-1.686-0.485v0c-1.073-0.01-2.059 0.295-2.958 0.913-0.899 0.619-1.656 1.412-2.272 2.38zM76.858 34.97v0c-0.234 0.051-0.417 0.076-0.55 0.075v0c-0.527-0.005-0.787-0.32-0.782-0.947v0c0.001-0.087 0.005-0.17 0.013-0.25 0.014-0.08 0.028-0.17 0.042-0.27v0l3.186-34.992c0-0.047 0.004-0.097 0.011-0.15 0.014-0.047 0.021-0.086 0.021-0.12v0c0.001-0.067-0.006-0.123-0.018-0.17-0.006-0.053-0.009-0.097-0.009-0.13v0c0.001-0.147 0.056-0.266 0.163-0.359 0.107-0.086 0.385-0.187 0.833-0.302v0l6.964-1.588c0.187-0.032 0.428-0.106 0.722-0.223 0.301-0.111 0.592-0.165 0.872-0.162v0c0.213 0.002 0.413 0.054 0.598 0.155 0.192 0.102 0.287 0.293 0.285 0.573v0c0 0.033-0.004 0.067-0.011 0.1-0.014 0.033-0.021 0.066-0.02 0.1v0c-0.014 0.08-0.057 0.44-0.13 1.078-0.072 0.646-0.153 1.425-0.241 2.338-0.095 0.919-0.194 1.902-0.297 2.948-0.109 1.046-0.212 2.025-0.306 2.937-0.088 0.919-0.169 1.699-0.241 2.338-0.072 0.646-0.116 1.009-0.13 1.089v0c1.207-0.782 2.456-1.435 3.747-1.956 1.291-0.528 2.581-0.787 3.868-0.776v0c1.7 0.015 3.167 0.382 4.4 1.1 1.227 0.711 2.242 1.65 3.045 2.818 0.796 1.174 1.381 2.519 1.753 4.036 0.373 1.523 0.552 3.092 0.538 4.705v0c-0.012 1.307-0.144 2.615-0.396 3.926-0.252 1.304-0.61 2.558-1.073 3.761-0.464 1.203-1.041 2.327-1.731 3.374-0.696 1.047-1.488 1.957-2.375 2.729-0.894 0.765-1.886 1.366-2.976 1.803-1.091 0.437-2.273 0.65-3.546 0.638v0c-1.533-0.014-2.933-0.366-4.201-1.058-1.261-0.685-2.433-1.569-3.516-2.651v0c-0.03 0.393-0.056 0.706-0.078 0.939-0.015 0.233-0.07 0.409-0.165 0.529-0.094 0.126-0.232 0.225-0.413 0.296-0.181 0.072-0.455 0.146-0.822 0.222v0c-0.18 0.052-0.498 0.129-0.952 0.232-0.454 0.103-0.999 0.221-1.633 0.355-0.635 0.134-1.336 0.281-2.104 0.441-0.775 0.16-1.556 0.316-2.345 0.469zM121.208 3.886v0c1.552-0.211 3.002-0.113 4.35 0.297 1.341 0.41 2.53 1.015 3.567 1.815 1.031 0.802 1.868 1.741 2.513 2.817 0.651 1.075 1.054 2.184 1.21 3.327v0c0.138 1.017-0.034 2.077-0.516 3.179-0.482 1.108-1.228 2.149-2.24 3.12-1.011 0.972-2.266 1.815-3.763 2.531-1.503 0.723-3.192 1.212-5.069 1.467v0c-0.984 0.134-2.028 0.175-3.131 0.123v0c0.162 0.698 0.449 1.274 0.861 1.73 0.413 0.462 0.902 0.822 1.469 1.082 0.566 0.253 1.19 0.413 1.872 0.482 0.688 0.061 1.382 0.044 2.082-0.052v0c0.786-0.107 1.533-0.279 2.241-0.517 0.708-0.238 1.383-0.518 2.025-0.84 0.637-0.315 1.247-0.654 1.83-1.016 0.583-0.362 1.133-0.719 1.65-1.073v0c0.141-0.053 0.266-0.1 0.374-0.142 0.102-0.041 0.199-0.068 0.292-0.08v0c0 0 0.015 0.133 0.044 0.398 0.028 0.259 0.075 0.626 0.14 1.101 0.065 0.476 0.139 1.047 0.224 1.716 0.085 0.675 0.173 1.423 0.265 2.245v0c0.057 0.073 0.101 0.148 0.131 0.224 0.025 0.084 0.041 0.149 0.047 0.195v0c0.027 0.198-0.123 0.434-0.449 0.707-0.325 0.28-0.762 0.581-1.31 0.905-0.548 0.324-1.18 0.652-1.894 0.985-0.708 0.332-1.436 0.643-2.184 0.933-0.74 0.296-1.463 0.546-2.169 0.749-0.706 0.204-1.326 0.342-1.861 0.415v0c-1.77 0.241-3.526 0.167-5.268-0.222-1.742-0.389-3.331-1.067-4.768-2.035-1.437-0.968-2.654-2.219-3.65-3.752-0.988-1.527-1.622-3.315-1.9-5.363v0c-0.291-2.14-0.198-4.195 0.281-6.164 0.485-1.97 1.297-3.742 2.435-5.317 1.146-1.569 2.589-2.879 4.33-3.93 1.733-1.057 3.713-1.737 5.939-2.04zM121.799 10.457v0c-0.667 0.091-1.265 0.317-1.794 0.678-0.523 0.36-0.982 0.84-1.379 1.439-0.39 0.591-0.707 1.284-0.949 2.077-0.243 0.787-0.409 1.643-0.497 2.571v0c1.645-0.52 3-1.021 4.064-1.502 1.066-0.475 1.913-0.926 2.541-1.355 0.621-0.428 1.048-0.826 1.28-1.194 0.232-0.375 0.326-0.717 0.284-1.028v0c-0.04-0.297-0.187-0.56-0.44-0.788-0.261-0.234-0.566-0.428-0.917-0.581-0.356-0.147-0.733-0.247-1.131-0.3-0.398-0.054-0.752-0.059-1.062-0.017zM152.423 5.489l-4.445 1.183c0.22 1.735 0.453 3.463 0.697 5.185 0.243 1.715 0.534 3.304 0.875 4.765v0c0.166 0.625 0.353 1.131 0.559 1.517 0.206 0.387 0.432 0.678 0.678 0.875 0.244 0.19 0.508 0.303 0.793 0.338 0.285 0.035 0.586 0.01 0.901-0.075v0c0.509-0.135 1.046-0.361 1.61-0.676 0.566-0.309 1.12-0.664 1.663-1.064v0c0.171-0.135 0.319-0.24 0.444-0.315 0.125-0.075 0.236-0.125 0.332-0.15v0c0.161-0.043 0.286 0 0.376 0.128 0.097 0.133 0.222 0.369 0.374 0.707 0.148 0.347 0.36 0.808 0.637 1.383 0.271 0.576 0.658 1.294 1.163 2.153v0c0.033 0.074 0.061 0.139 0.083 0.195 0.027 0.048 0.047 0.098 0.061 0.15v0c0.058 0.219 0.017 0.399-0.126 0.54-0.142 0.141-0.389 0.328-0.741 0.56v0c-0.592 0.392-1.222 0.801-1.888 1.226-0.66 0.424-1.322 0.828-1.985 1.212-0.657 0.382-1.296 0.717-1.916 1.006-0.625 0.297-1.182 0.511-1.671 0.642v0c-2.667 0.71-4.786 0.563-6.357-0.44-1.569-0.997-2.715-2.851-3.436-5.564v0c-0.123-0.464-0.233-0.942-0.33-1.433-0.096-0.492-0.192-1.008-0.288-1.548v0c-0.264-1.641-0.528-3.188-0.79-4.643-0.258-1.463-0.496-2.862-0.714-4.198v0l-2.512 0.669c-0.863 0.23-1.495 0.357-1.896 0.38-0.399 0.03-0.628-0.064-0.686-0.283v0c-0.017-0.064 0.014-0.259 0.093-0.583 0.087-0.32 0.201-0.709 0.341-1.168 0.148-0.453 0.305-0.94 0.471-1.46 0.17-0.528 0.335-1.021 0.496-1.477 0.16-0.463 0.294-0.865 0.404-1.204 0.118-0.335 0.191-0.541 0.219-0.617v0l1.701-0.453c-0.181-1.249-0.335-2.294-0.462-3.137-0.129-0.849-0.24-1.55-0.333-2.105-0.086-0.557-0.146-0.989-0.18-1.297-0.027-0.31-0.034-0.543-0.02-0.699 0.02-0.157 0.07-0.267 0.15-0.329 0.072-0.067 0.177-0.137 0.317-0.209v0c0.677-0.332 1.336-0.645 1.975-0.939 0.637-0.301 1.274-0.605 1.91-0.912 0.636-0.307 1.276-0.636 1.921-0.987 0.651-0.353 1.321-0.738 2.01-1.156v0c0.052-0.014 0.083-0.026 0.094-0.036 0.016-0.018 0.046-0.033 0.091-0.045v0c0.193-0.051 0.307-0.013 0.342 0.117v0l0.013 0.048c0.149 0.898 0.349 2.153 0.597 3.763 0.247 1.604 0.531 3.422 0.852 5.454v0l6.407-1.705c0.129-0.034 0.266-0.023 0.413 0.035 0.138 0.053 0.235 0.182 0.289 0.389v0c0.022 0.084 0.006 0.399-0.048 0.944-0.063 0.541-0.165 1.258-0.307 2.151v0l-0.346 2.162c-0.044 0.274-0.113 0.482-0.207 0.624-0.087 0.14-0.31 0.276-0.668 0.406zM175.025 17.38l-8.19 3.166c-0.305 0.118-0.637 0.228-0.997 0.332-0.36 0.104-0.7 0.167-1.02 0.191-0.311 0.027-0.589 0.01-0.835-0.052-0.248-0.068-0.417-0.218-0.506-0.448v0c-0.005-0.012-0.007-0.037-0.006-0.073 0.007-0.038 0.004-0.073-0.008-0.104v0l1.68-19.862c-0.647 0.25-1.363 0.541-2.149 0.874-0.793 0.335-1.589 0.668-2.391 0.999-0.799 0.337-1.558 0.656-2.279 0.956-0.729 0.296-1.348 0.543-1.858 0.74v0c-0.149 0.058-0.283 0.052-0.403-0.016-0.113-0.071-0.194-0.168-0.241-0.292v0l-0.036-0.094 0.182-6.46c-0.037-0.465 0.089-0.824 0.377-1.078 0.288-0.254 0.603-0.447 0.944-0.58v0c2.705-1.046 5.381-2.027 8.029-2.944 2.641-0.914 5.308-1.892 8.001-2.932v0c0.174-0.067 0.369-0.082 0.583-0.044 0.217 0.045 0.356 0.145 0.417 0.301v0c0.005 0.012 0.013 0.07 0.024 0.173v0l-1.148 18.798c0.012 0.031 0.065 0.039 0.159 0.025 0.086-0.019 0.197-0.044 0.335-0.076 0.135-0.038 0.268-0.082 0.399-0.133 0.131-0.05 0.242-0.094 0.336-0.13v0c0.97-0.375 1.901-0.76 2.791-1.154 0.889-0.401 1.796-0.78 2.723-1.139v0c0.168-0.065 0.33-0.081 0.485-0.048 0.147 0.029 0.265 0.158 0.354 0.388v0c0.012 0.031 0.006 0.051-0.019 0.062v0l-0.562 7.197c-0.03 0.348-0.187 0.673-0.47 0.975-0.29 0.305-0.672 0.599-1.149 0.883-0.476 0.284-1.022 0.556-1.636 0.815-0.612 0.265-1.251 0.527-1.916 0.784z" opacity="1" transform="matrix(1,0,0,1,0,0)" fill="#fbfbfb" class="undefined-text-0" data-fill-palette-color="primary" id="text-0"></path></svg></g></svg></g></svg></g></svg></g><g transform="matrix(1,0,0,1,70.14461296663109,0)"><svg viewBox="0 0 104.1421340667378 71.04924124709093" height="71.04924124709093" width="104.1421340667378"><g><svg xmlns="http://www.w3.org/2000/svg" viewBox="2.5002036094665527 15.221202850341797 93.83859252929688 64.01982116699219" xml:space="preserve" x="0" y="0" height="71.04924124709093" width="104.1421340667378" class="icon-icon-0" data-fill-palette-color="accent" id="icon-0"><path d="M95.889 36.427L75.731 16.27a1.548 1.548 0 0 0-2.188 0l-8.186 8.186a1.548 1.548 0 0 0 0 2.188l0.983 0.983a4.176 4.176 0 0 1-2.281 0.673 4.178 4.178 0 0 1-2.974-1.232 7.256 7.256 0 0 0-5.162-2.138c-1.95 0-3.783 0.759-5.162 2.138l-1.042 1.042-1.636-1.636a7.252 7.252 0 0 0-5.162-2.138c-1.95 0-3.783 0.759-5.162 2.138a4.178 4.178 0 0 1-2.974 1.232 4.168 4.168 0 0 1-2.281-0.674l0.984-0.984a1.548 1.548 0 0 0 0-2.188L25.3 15.674a1.548 1.548 0 0 0-2.188 0L2.953 35.833a1.548 1.548 0 0 0 0 2.188l3.783 3.783a7.72 7.72 0 0 0 5.497 2.277 7.717 7.717 0 0 0 4.294-1.292l9.256 9.256-1.091 1.091a5.397 5.397 0 0 0 0 7.624 5.415 5.415 0 0 0 3.858 1.579v0.045c0 1.44 0.561 2.794 1.579 3.812a5.413 5.413 0 0 0 3.86 1.579 5.375 5.375 0 0 0 1.576 3.857 5.37 5.37 0 0 0 3.86 1.579 5.373 5.373 0 0 0 1.576 3.857 5.356 5.356 0 0 0 3.812 1.579c1.44 0 2.794-0.561 3.812-1.579l1.091-1.091 1.685 1.685a5.356 5.356 0 0 0 3.812 1.579c1.44 0 2.794-0.561 3.812-1.579a5.373 5.373 0 0 0 1.574-3.859l0.05 0.002c1.44 0 2.794-0.561 3.812-1.579a5.356 5.356 0 0 0 1.579-3.812l-0.002-0.048 0.047 0.002c1.44 0 2.794-0.561 3.812-1.579a5.374 5.374 0 0 0 1.574-3.86l0.05 0.002c1.44 0 2.794-0.561 3.812-1.579a5.397 5.397 0 0 0 0-7.624l-1.685-1.685 8.662-8.662a7.72 7.72 0 0 0 4.295 1.292 7.723 7.723 0 0 0 5.497-2.277l3.783-3.783a1.548 1.548 0 0 0 0.004-2.186zM83.3 40.21L69.69 26.6l-0.002-0.002-1.049-1.049 5.998-5.998L92.606 37.52l-2.689 2.689a4.649 4.649 0 0 1-3.309 1.371 4.642 4.642 0 0 1-3.308-1.37zM73.149 59.167a2.282 2.282 0 0 1-1.624 0.673c-0.613 0-1.19-0.239-1.624-0.673l-1.685-1.685-1.094-1.094-1.094-1.094-2.694-2.694a2.3 2.3 0 0 1 1.624-3.922c0.613 0 1.19 0.239 1.624 0.673l2.694 2.694 1.094 1.094 1.094 1.094 1.685 1.685a2.3 2.3 0 0 1 0 3.249z m-5.436 5.437a2.281 2.281 0 0 1-1.624 0.672c-0.613 0-1.19-0.239-1.624-0.672l-1.685-1.685-1.094-1.094-1.094-1.094-2.694-2.694a2.298 2.298 0 0 1 1.624-3.92c0.614 0 1.19 0.239 1.624 0.672l2.694 2.694 1.094 1.094 1.094 1.094 1.685 1.685a2.3 2.3 0 0 1 0 3.248z m-4.764 3.812c0 0.613-0.239 1.19-0.673 1.624a2.28 2.28 0 0 1-1.624 0.673 2.28 2.28 0 0 1-1.624-0.673l-1.685-1.686-1.094-1.094-1.094-1.094-2.694-2.694-0.002-0.002a2.282 2.282 0 0 1-0.671-1.622c0-0.613 0.239-1.19 0.673-1.624a2.28 2.28 0 0 1 1.624-0.672c0.613 0 1.19 0.239 1.624 0.672l2.694 2.694 1.094 1.094 1.094 1.094 1.685 1.686 0.002 0.002c0.433 0.433 0.671 1.009 0.671 1.622z m-6.109 7.061a2.28 2.28 0 0 1-1.624 0.672c-0.614 0-1.19-0.239-1.624-0.672l-1.685-1.685-1.094-1.094-1.094-1.094-2.694-2.694a2.3 2.3 0 0 1 0-3.249c0.434-0.434 1.011-0.672 1.624-0.672s1.19 0.239 1.624 0.672l2.694 2.694 1.094 1.094 1.094 1.094 1.685 1.685a2.301 2.301 0 0 1 0 3.249z m11.931-28.314a5.356 5.356 0 0 0-3.812-1.579 5.36 5.36 0 0 0-3.813 1.579 5.371 5.371 0 0 0-1.574 3.86l-0.05-0.002c-1.44 0-2.794 0.561-3.812 1.579a5.374 5.374 0 0 0-1.574 3.86l-0.05-0.002c-1.44 0-2.794 0.561-3.812 1.579a5.356 5.356 0 0 0-1.579 3.812l0.002 0.048-0.047-0.002c-1.44 0-2.794 0.561-3.812 1.579a5.398 5.398 0 0 0 0 7.625l2.694 2.694-1.091 1.091a2.28 2.28 0 0 1-1.624 0.673 2.28 2.28 0 0 1-1.624-0.673 2.301 2.301 0 0 1 0-3.249c0.302-0.302 0.453-0.698 0.453-1.094a1.548 1.548 0 0 0-2.641-1.094c-0.434 0.434-1.011 0.673-1.624 0.673s-1.19-0.239-1.624-0.673a2.28 2.28 0 0 1-0.673-1.624c0-0.613 0.239-1.19 0.673-1.624 0.302-0.302 0.453-0.698 0.453-1.094s-0.151-0.792-0.453-1.094a1.547 1.547 0 0 0-2.188 0 2.28 2.28 0 0 1-1.624 0.672c-0.614 0-1.19-0.239-1.624-0.672a2.3 2.3 0 0 1 0-3.249c0.302-0.302 0.453-0.698 0.453-1.094s-0.151-0.792-0.453-1.094a1.548 1.548 0 0 0-2.188 0 2.28 2.28 0 0 1-1.624 0.673 2.298 2.298 0 0 1-1.624-3.921l2.189-2.189 0.002-0.002L40.18 42.031a3.598 3.598 0 0 1 2.084-0.679c0.952 0 1.846 0.371 2.519 1.044l4.794 4.794a7.266 7.266 0 0 0 5.171 2.142c1.935 0 3.76-0.749 5.138-2.109l3.393-3.35a1.547 1.547 0 0 0 0.007-2.195l-11.38-11.379 1.042-1.042a4.18 4.18 0 0 1 2.974-1.232 4.18 4.18 0 0 1 2.974 1.231 7.252 7.252 0 0 0 5.162 2.138c1.652 0 3.22-0.545 4.499-1.55l11.459 11.459-8.553 8.553-2.692-2.693z m-31.234-6.942l-9.568 9.632-9.144-9.144L30.284 29.25a7.244 7.244 0 0 0 4.499 1.55c1.95 0 3.783-0.759 5.162-2.138a4.18 4.18 0 0 1 2.974-1.232c1.123 0 2.179 0.437 2.974 1.232l1.637 1.637 1.094 1.094 1.094 1.094 10.275 10.276-2.285 2.256a4.192 4.192 0 0 1-2.963 1.217A4.19 4.19 0 0 1 51.762 45l-4.794-4.794a6.602 6.602 0 0 0-3.197-1.771 6.74 6.74 0 0 0-1.521-0.179c-0.172 0-0.343 0.013-0.514 0.027a6.716 6.716 0 0 0-3.606 1.418 6.233 6.233 0 0 0-0.593 0.52z m-25.304 0.765a4.652 4.652 0 0 1-3.309-1.37l-2.689-2.689 17.97-17.97 5.998 5.998-1.051 1.051-0.001 0.001-13.61 13.61a4.645 4.645 0 0 1-3.308 1.369z" fill="#04d19b" data-fill-palette-color="accent"></path></svg></g></svg></g><g></g></svg></g></svg></g><g><path d="M127.494 23.604A122.216 122.216 0 0 1 268.026 23.604L257.974 23.604A112.163 112.163 0 0 0 137.546 23.604L127.494 23.604M127.494 223.596A122.216 122.216 0 0 0 268.026 223.596L257.974 223.596A112.163 112.163 0 0 1 137.546 223.596L127.494 223.596" fill="#fbfbfb" stroke="transparent" data-fill-palette-color="tertiary"></path></g></svg></g></svg><rect width="395.52" height="247.2" fill="none" stroke="none" visibility="hidden"></rect></g></svg></g></svg>